<?xml version="1.0" encoding="UTF-8"?>
<!DOCTYPE svg PUBLIC "-//W3C//DTD SVG 1.1//EN" "http://www.w3.org/Graphics/SVG/1.1/DTD/svg11.dtd">
<svg xmlns="http://www.w3.org/2000/svg" version="1.1" width="1172px" height="513px" style="shape-rendering:geometricPrecision; text-rendering:geometricPrecision; image-rendering:optimizeQuality; fill-rule:evenodd; clip-rule:evenodd" xmlns:xlink="http://www.w3.org/1999/xlink">
<g><path style="opacity:0.986" fill="#535253" d="M 44.5,36.5 C 191.502,36.1667 338.502,36.5 485.5,37.5C 393.216,157.785 300.549,277.785 207.5,397.5C 261.163,398.5 314.829,398.833 368.5,398.5C 368.5,425.167 368.5,451.833 368.5,478.5C 260.498,478.833 152.498,478.5 44.5,477.5C 136.807,356.879 229.807,236.879 323.5,117.5C 230.502,116.5 137.502,116.167 44.5,116.5C 44.5,89.8333 44.5,63.1667 44.5,36.5 Z"/></g>
<g><path style="opacity:0.976" fill="#5a97f6" d="M 606.5,176.5 C 613.906,176.152 621.239,176.652 628.5,178C 638.764,181.799 643.764,189.299 643.5,200.5C 642.851,214.648 635.518,222.481 621.5,224C 594.012,226.191 583.512,214.025 590,187.5C 594.081,181.566 599.581,177.9 606.5,176.5 Z"/></g>
<g><path style="opacity:0.985" fill="#5a96f6" d="M 459.5,192.5 C 482.51,192.167 505.51,192.5 528.5,193.5C 546.147,254.758 563.481,316.091 580.5,377.5C 565.167,377.5 549.833,377.5 534.5,377.5C 531.043,362.505 527.043,347.671 522.5,333C 503.17,332.5 483.836,332.333 464.5,332.5C 461.004,347.484 457.004,362.318 452.5,377C 437.504,377.5 422.504,377.667 407.5,377.5C 424.678,315.79 442.011,254.123 459.5,192.5 Z M 493.5,224.5 C 499.891,247.222 506.225,270.056 512.5,293C 500.171,293.5 487.838,293.667 475.5,293.5C 481.034,270.362 487.034,247.362 493.5,224.5 Z"/></g>
<g><path style="opacity:0.981" fill="#5a97f6" d="M 735.5,237.5 C 745.461,237.041 754.794,239.207 763.5,244C 767.036,247.201 770.203,250.701 773,254.5C 788.666,238.626 807.166,234.126 828.5,241C 839.758,245.659 847.258,253.825 851,265.5C 852.515,271.075 853.515,276.742 854,282.5C 854.5,314.165 854.667,345.832 854.5,377.5C 839.167,377.5 823.833,377.5 808.5,377.5C 808.667,347.831 808.5,318.165 808,288.5C 806.662,281.326 802.329,277.993 795,278.5C 789.675,278.386 785.008,280.052 781,283.5C 780.5,314.832 780.333,346.165 780.5,377.5C 765.5,377.5 750.5,377.5 735.5,377.5C 735.667,347.165 735.5,316.832 735,286.5C 733.15,280.656 729.15,277.989 723,278.5C 716.731,278.144 711.731,280.477 708,285.5C 707.5,316.165 707.333,346.832 707.5,377.5C 692.167,377.5 676.833,377.5 661.5,377.5C 661.5,331.833 661.5,286.167 661.5,240.5C 674.171,240.333 686.838,240.5 699.5,241C 700.753,245.173 702.086,249.34 703.5,253.5C 712.38,244.393 723.047,239.06 735.5,237.5 Z"/></g>
<g><path style="opacity:0.981" fill="#5a97f6" d="M 930.5,237.5 C 965.121,237.284 985.288,254.284 991,288.5C 992.259,299.797 992.759,311.131 992.5,322.5C 967.491,322.167 942.491,322.5 917.5,323.5C 918.077,333.519 923.077,340.019 932.5,343C 949.875,345.966 967.209,345.133 984.5,340.5C 985.499,352.482 985.832,364.482 985.5,376.5C 961.852,381.511 938.185,381.678 914.5,377C 890.124,370.435 876.291,354.602 873,329.5C 869.803,309.722 871.47,290.389 878,271.5C 888.688,249.734 906.188,238.401 930.5,237.5 Z M 929.5,267.5 C 941.712,266.542 948.212,272.209 949,284.5C 949.499,288.152 949.665,291.818 949.5,295.5C 938.833,295.5 928.167,295.5 917.5,295.5C 917.302,287.012 919.136,279.012 923,271.5C 925.173,270.067 927.34,268.734 929.5,267.5 Z"/></g>
<g><path style="opacity:0.982" fill="#5a97f6" d="M 1047.5,237.5 C 1062.81,236.886 1077.81,238.719 1092.5,243C 1103.86,248.178 1111.69,256.678 1116,268.5C 1117.32,273.775 1118.32,279.108 1119,284.5C 1119.5,315.498 1119.67,346.498 1119.5,377.5C 1106.83,377.5 1094.17,377.5 1081.5,377.5C 1081.11,372.917 1079.94,368.584 1078,364.5C 1072.2,373.288 1064.03,378.454 1053.5,380C 1031.37,383.98 1015.21,376.147 1005,356.5C 996.453,323.736 1008.62,303.903 1041.5,297C 1052.45,295.295 1063.45,294.128 1074.5,293.5C 1075.39,284.1 1071.39,277.934 1062.5,275C 1046.24,272.447 1030.24,273.613 1014.5,278.5C 1013.5,266.518 1013.17,254.518 1013.5,242.5C 1024.91,240.374 1036.24,238.707 1047.5,237.5 Z M 1072.5,319.5 C 1073.82,323.107 1074.49,327.107 1074.5,331.5C 1076.82,342.588 1072.32,347.922 1061,347.5C 1049.85,346.569 1045.52,340.569 1048,329.5C 1049.89,325.942 1052.73,323.442 1056.5,322C 1061.97,321.133 1067.31,320.3 1072.5,319.5 Z"/></g>
<g><path style="opacity:0.981" fill="#5a96f6" d="M 592.5,240.5 C 607.833,240.5 623.167,240.5 638.5,240.5C 638.5,286.167 638.5,331.833 638.5,377.5C 623.167,377.5 607.833,377.5 592.5,377.5C 592.5,331.833 592.5,286.167 592.5,240.5 Z"/></g>
<g><path style="opacity:1" fill="#5b97f6" d="M 484.5,399.5 C 484.5,425.5 484.5,451.5 484.5,477.5C 458.426,477.176 432.426,477.51 406.5,478.5C 406.5,452.167 406.5,425.833 406.5,399.5C 432.5,399.5 458.5,399.5 484.5,399.5 Z"/></g>
<g><path style="opacity:1" fill="#6390f0" d="M 484.5,399.5 C 485.498,425.995 485.831,452.661 485.5,479.5C 458.995,479.831 432.661,479.498 406.5,478.5C 432.426,477.51 458.426,477.176 484.5,477.5C 484.5,451.5 484.5,425.5 484.5,399.5 Z"/></g>
</svg>
